# xmcd CD database file
#
# Track frame offsets:
#	150
#	15317
#	32970
#	93950
#	119430
#	151677
#	168262
#	213800
#	224000
#	259727
#	293040
#
# Disc length: 4265 seconds
#
# Revision: 0
# Processed by: cddbd v1.5.1PL0 Copyright (c) Steve Scherf et al.
# Submitted via: CDex 1.51
#
DISCID=8f10a70b
DTITLE=John Pisano and Billy Bean - Makin' It Again
DYEAR=1900
DGENRE=Jazz
TTITLE0=Fat Feet
TTITLE1=Room 608
TTITLE2=You Stepped Out of a Dream
TTITLE3=Indian Summer
TTITLE4=Strike up the Band
TTITLE5=Take Your Pick
TTITLE6=Sweet Georgia Brown
TTITLE7=Billy's Beanery
TTITLE8=Safari
TTITLE9=Cherokee
TTITLE10=Fat Feet (Duo)
EXTD=
EXTT0=
EXTT1=
EXTT2=
EXTT3=
EXTT4=
EXTT5=
EXTT6=
EXTT7=
EXTT8=
EXTT9=
EXTT10=
PLAYORDER=
